<?xml version="1.0" encoding="utf-8"?>
<!-- Generator: Adobe Illustrator 20.1.0, SVG Export Plug-In . SVG Version: 6.00 Build 0)  -->
<svg version="1.1" id="Layer_1" xmlns="http://www.w3.org/2000/svg" xmlns:xlink="http://www.w3.org/1999/xlink" x="0px" y="0px"
	 viewBox="0 0 431.6 431.8" style="enable-background:new 0 0 431.6 431.8;" xml:space="preserve">
<style type="text/css">
	.st0{opacity:0.12;}
	.st1{fill:none;stroke:#000000;stroke-width:7;}
	.st2{fill:none;stroke:#000000;stroke-width:7.5869;}
	.st3{fill:none;stroke:#000000;stroke-width:6.9358;}
</style>
<title>chip</title>
<g id="Layer_2" class="st0">
	<g id="Layer_1-2">
		<g id="layer1">
			<g id="g7738">
				<path id="path3006" class="st1" d="M72.3,431.8V322.2h85.4l-0.5-81.8l73.7-104.6h40.9l74.9,66.3v229.7"/>
				<path id="path3010" class="st1" d="M157.8,292h32.3"/>
				<path id="path3012" class="st1" d="M156.8,275.4h32.3"/>
				<path id="path3014" class="st1" d="M222.4,121.8H80v184.9"/>
				<path id="path3016" class="st1" d="M80.5,280.4h35.4"/>
				<path id="path3028-1" class="st1" d="M199,275.4c0,2.7-2.2,4.8-4.8,4.8c-2.7,0-4.8-2.2-4.8-4.8c0-2.7,2.2-4.8,4.8-4.8
					C196.8,270.5,199,272.7,199,275.4L199,275.4z"/>
				<path id="path3059" class="st1" d="M83,153.1h30.8v-30.8"/>
				<path id="path3065" class="st1" d="M127.5,152.6v33.8"/>
				<path id="path3067" class="st1" d="M105.8,152.6v53"/>
				<path id="path3073" class="st1" d="M293.6,325.9H172.4v22.2H75"/>
				<path id="path3075" class="st1" d="M261.3,325.9v-32.3"/>
				<path id="path3077" class="st1" d="M237.1,325.9v-32.3"/>
				<path id="path3079" class="st1" d="M329.5,324.4V207.2l-62.1-57.1h-45"/>
				<path id="path3081" class="st1" d="M233.6,200.6v27.3h20.7v-7.6H282V239h13.6v-35.9h-51.5V192h-10.6v8.6H233.6z"/>
				<path id="path3083" class="st1" d="M288.1,238.5v23.2"/>
				<path id="path3085" class="st1" d="M232,196.6h-14.1"/>
				<path id="path3087" class="st1" d="M232,226.4h-14.1"/>
				<path id="path3089" class="st1" d="M271.9,202.1v-15.7"/>
				<path id="path3091" class="st1" d="M243.6,227.4v20.7"/>
				<path id="path3093" class="st1" d="M198.5,292.5c0,2.7-2.2,4.8-4.8,4.8c-2.7,0-4.8-2.2-4.8-4.8c0-2.7,2.2-4.8,4.8-4.8
					S198.5,289.9,198.5,292.5L198.5,292.5z"/>
				<path id="path3095" class="st1" d="M242.4,291c0,2.7-2.2,4.8-4.8,4.8c-2.7,0-4.8-2.2-4.8-4.8c0-2.7,2.2-4.8,4.8-4.8
					S242.4,288.3,242.4,291L242.4,291z"/>
				<path id="path3097" class="st1" d="M266.1,290.5c0,2.7-2.2,4.8-4.8,4.8c-2.7,0-4.8-2.2-4.8-4.8c0-2.7,2.2-4.8,4.8-4.8
					S266.1,287.9,266.1,290.5L266.1,290.5z"/>
				<path id="path3099" class="st1" d="M124.2,280.4c0,2.7-2.2,4.8-4.8,4.8c-2.7,0-4.8-2.2-4.8-4.8c0-2.7,2.2-4.8,4.8-4.8
					S124.2,277.8,124.2,280.4L124.2,280.4z"/>
				<path id="path3101" class="st1" d="M110.1,208.2c0,2.7-2.2,4.8-4.8,4.8s-4.8-2.2-4.8-4.8c0-2.7,2.2-4.8,4.8-4.8
					S110.1,205.5,110.1,208.2L110.1,208.2z"/>
				<path id="path3103" class="st1" d="M131.8,189.5c0,2.7-2.1,4.8-4.8,4.8s-4.8-2.1-4.8-4.8s2.1-4.8,4.8-4.8l0,0
					C129.6,184.7,131.8,186.9,131.8,189.5z"/>
				<path id="path3107" class="st1" d="M277.2,181.9c0,2.7-2.2,4.8-4.8,4.8s-4.8-2.2-4.8-4.8c0-2.7,2.2-4.8,4.8-4.8
					S277.2,179.3,277.2,181.9L277.2,181.9z"/>
				<path id="path3109" class="st1" d="M292.9,265.3c0,2.7-2.2,4.8-4.8,4.8c-2.7,0-4.8-2.2-4.8-4.8c0-2.7,2.2-4.8,4.8-4.8
					S292.9,262.6,292.9,265.3L292.9,265.3z"/>
				<path id="path3111" class="st1" d="M248.5,251.1c0,2.7-2.2,4.8-4.8,4.8s-4.8-2.2-4.8-4.8c0-2.7,2.2-4.8,4.8-4.8
					S248.5,248.5,248.5,251.1L248.5,251.1z"/>
				<path id="path3113" class="st1" d="M218.7,226.9c0,2.7-2.2,4.8-4.8,4.8s-4.8-2.2-4.8-4.8c0-2.7,2.2-4.8,4.8-4.8
					C216.5,222.1,218.7,224.2,218.7,226.9L218.7,226.9z"/>
				<path id="path3115" class="st1" d="M218.7,195.1c0,2.7-2.2,4.8-4.8,4.8s-4.8-2.2-4.8-4.8c0-2.7,2.2-4.8,4.8-4.8
					C216.5,190.2,218.7,192.4,218.7,195.1L218.7,195.1z"/>
				<path id="path3117" class="st1" d="M152.9,175.7h31.4"/>
				<path id="path3119" class="st1" d="M293.6,386.4V415"/>
				<path id="path3125" class="st1" d="M265.7,121.4V87.1h52.1V37.9h-52.1V0"/>
				<path id="path3127" class="st1" d="M345,350.7h-12.1"/>
				<path id="path3129" class="st1" d="M347.9,375h-26.4"/>
				<path id="path3131" class="st1" d="M361.4,362.9h70.2"/>
				<path id="path3137" class="st1" d="M237.9,105.7V62.1h114.3"/>
				<path id="path3139" class="st1" d="M317.9,86.4V120"/>
				<path id="path3141" class="st1" d="M334.2,351.1c0,2.7-2.2,4.8-4.8,4.8c-2.7,0-4.8-2.2-4.8-4.8c0-2.7,2.2-4.8,4.8-4.8
					S334.2,348.5,334.2,351.1L334.2,351.1z"/>
				<path id="path3143" class="st1" d="M319.9,374c0,2.7-2.2,4.8-4.8,4.8c-2.7,0-4.8-2.2-4.8-4.8c0-2.7,2.2-4.8,4.8-4.8
					S319.9,371.3,319.9,374L319.9,374z"/>
				<path id="path3145" class="st1" d="M298.5,417.6c0,2.7-2.2,4.8-4.8,4.8c-2.7,0-4.8-2.2-4.8-4.8c0-2.7,2.2-4.8,4.8-4.8
					S298.5,414.9,298.5,417.6L298.5,417.6z"/>
				<path id="path3147" class="st1" d="M322.8,122.6c0,2.7-2.2,4.8-4.8,4.8s-4.8-2.2-4.8-4.8s2.2-4.8,4.8-4.8
					S322.8,119.9,322.8,122.6L322.8,122.6z"/>
				<path id="path3149" class="st1" d="M361.3,62.6c0,2.7-2.2,4.8-4.8,4.8s-4.8-2.2-4.8-4.8c0-2.7,2.2-4.8,4.8-4.8
					S361.3,59.9,361.3,62.6L361.3,62.6z"/>
				<path id="path3151" class="st1" d="M170.7,347.9h45"/>
				<path id="path3153" class="st1" d="M261.4,325.7v23.6H240v35"/>
				<path id="path3155" class="st1" d="M95,407.1v-27.9"/>
				<path id="path3157" class="st1" d="M385.7,362.1v-37.9h35.7v12.9h10.2"/>
				<path id="path3169" class="st1" d="M76.4,73.6l60.7-27.9h58.6l66.4-32.9"/>
				<path id="path3171" class="st1" d="M76.4,87.1l60.7-27.9h58.6l66.4-32.9"/>
				<path id="path3173" class="st1" d="M138.6,47.9V22.1"/>
				<path id="path3175" class="st1" d="M145.7,60v44.3"/>
				<path id="path3177" class="st1" d="M171.4,61.4v20"/>
				<path id="path3179" class="st1" d="M143.2,17.4c0,2.7-2.2,4.8-4.8,4.8c-2.7,0-4.8-2.2-4.8-4.8c0-2.7,2.2-4.8,4.8-4.8
					C141.1,12.5,143.2,14.7,143.2,17.4L143.2,17.4z"/>
				<path id="path3181" class="st1" d="M176.8,84.5c0,2.7-2.1,4.8-4.8,4.8s-4.8-2.1-4.8-4.8c0-2.7,2.1-4.8,4.8-4.8l0,0
					C174.6,79.7,176.8,81.9,176.8,84.5z"/>
				<path id="path3183" class="st1" d="M385.7,324.3v-80.7"/>
				<path id="path3187" class="st1" d="M407.1,324.3V151.4H380l-61.4-64.3"/>
				<path id="path3189" class="st1" d="M390.4,240.9c0,2.7-2.2,4.8-4.8,4.8s-4.8-2.2-4.8-4.8c0-2.7,2.2-4.8,4.8-4.8
					S390.4,238.3,390.4,240.9L390.4,240.9z"/>
				<path id="path3191" class="st1" d="M405,362.9v39.3h26.6"/>
				<path id="path3195" class="st1" d="M38.9,403.1c0,2.7-2.2,4.8-4.8,4.8c-2.7,0-4.8-2.2-4.8-4.8c0-2.7,2.2-4.8,4.8-4.8
					C36.8,398.3,38.9,400.4,38.9,403.1L38.9,403.1z"/>
				<path id="path3197" class="st1" d="M225.4,348.1c0,2.7-2.2,4.8-4.8,4.8c-2.7,0-4.8-2.2-4.8-4.8c0-2.7,2.2-4.8,4.8-4.8
					C223.2,343.3,225.4,345.4,225.4,348.1L225.4,348.1z"/>
				<path id="path3199" class="st1" d="M100.4,376.6c0,2.7-2.2,4.8-4.8,4.8c-2.7,0-4.8-2.2-4.8-4.8c0-2.7,2.2-4.8,4.8-4.8
					S100.4,374,100.4,376.6L100.4,376.6z"/>
				<path id="path3203" class="st1" d="M195,45V0"/>
				<path id="path3209" class="st1" d="M195.7,10.7h20.7"/>
				<path id="path3211" class="st1" d="M226.8,10.9c0,2.7-2.2,4.8-4.8,4.8c-2.7,0-4.8-2.2-4.8-4.8s2.2-4.8,4.8-4.8l0,0
					C224.7,6.1,226.8,8.3,226.8,10.9z"/>
				<path id="path3217" class="st1" d="M361.4,62.9h27.1v29.3h43"/>
				<path id="path3219" class="st1" d="M56.4,107.1H0"/>
				<path id="path3221" class="st1" d="M290.3,36.4V20.7"/>
				<path id="path3225" class="st2" d="M326.4,37.5V21.6"/>
				<path id="path3227" class="st1" d="M294.9,16.6c0,2.7-2.2,4.8-4.8,4.8c-2.7,0-4.8-2.2-4.8-4.8c0-2.7,2.2-4.8,4.8-4.8
					S294.9,14,294.9,16.6L294.9,16.6z"/>
				<path id="path3231" class="st1" d="M331.1,15.9c0,2.7-2.2,4.8-4.8,4.8c-2.7,0-4.8-2.2-4.8-4.8s2.2-4.8,4.8-4.8
					S331.1,13.3,331.1,15.9L331.1,15.9z"/>
				<path id="path3233" class="st1" d="M45.7,30H0"/>
				<path id="path3241" class="st1" d="M387.9,62.9h43.8"/>
				<path id="path3247" class="st1" d="M25,154.3v37.9h17.1v21.4h13.6"/>
				<path id="path3251" class="st1" d="M164.3,390.7v12.9"/>
				<path id="path3255" class="st1" d="M410.9,113.8c0,2.7-2.2,4.8-4.8,4.8s-4.8-2.2-4.8-4.8s2.2-4.8,4.8-4.8
					S410.9,111.1,410.9,113.8L410.9,113.8z"/>
				<path id="path3261" class="st1" d="M168.9,408.1c0,2.7-2.2,4.8-4.8,4.8c-2.7,0-4.8-2.2-4.8-4.8c0-2.7,2.2-4.8,4.8-4.8
					C166.8,403.3,168.9,405.4,168.9,408.1L168.9,408.1z"/>
				<path id="path3202" class="st1" d="M58.3,431.8V308.2h85.4V235l79.8-113.1H276l84.9,74.8v235.2"/>
				<path id="path3204" class="st1" d="M72.3,431.8V322.2h85.4l-0.5-81.8l73.7-104.6h40.9l74.9,66.3v229.7"/>
				<path id="path3210" class="st1" d="M222.4,121.8H80v184.9"/>
				<g id="g3444">
					<path id="path3208" class="st1" d="M156.8,275.4h32.3"/>
					<path id="path3214" class="st1" d="M199,275.4c0,2.7-2.2,4.8-4.8,4.8c-2.7,0-4.8-2.2-4.8-4.8c0-2.7,2.2-4.8,4.8-4.8
						C196.8,270.5,199,272.7,199,275.4L199,275.4z"/>
				</g>
				<path id="path3216" class="st1" d="M83,153.1h30.8v-30.8"/>
				<path id="path3218" class="st1" d="M112.8,153.1h38.9"/>
				<path id="path3226" class="st1" d="M75,408.2h52V386h167.1v-60.1h53"/>
				<path id="path3228" class="st1" d="M293.6,325.9H172.4v22.2H75"/>
				<path id="path3234" class="st1" d="M329.5,324.4V207.2l-62.1-57.1h-45"/>
				<path id="path3236" class="st1" d="M233.6,200.6v27.3h20.7v-7.6H282V239h13.6v-35.9h-51.5V192h-10.6v8.6H233.6z"/>
				<path id="path3238" class="st1" d="M288.1,238.5v23.2"/>
				<path id="path3240" class="st1" d="M232,196.6h-14.1"/>
				<path id="path3242" class="st1" d="M232,226.4h-14.1"/>
				<path id="path3244" class="st1" d="M271.9,202.1v-15.7"/>
				<path id="path3246" class="st1" d="M243.6,227.4v20.7"/>
				<g id="g3448">
					<path id="path3206" class="st1" d="M157.8,292h32.3"/>
					<path id="path3248" class="st1" d="M198.5,292.5c0,2.7-2.2,4.8-4.8,4.8c-2.7,0-4.8-2.2-4.8-4.8c0-2.7,2.2-4.8,4.8-4.8
						S198.5,289.9,198.5,292.5L198.5,292.5z"/>
				</g>
				<g id="g3436">
					<path id="path3232" class="st1" d="M237.1,325.9v-32.3"/>
					<path id="path3250" class="st1" d="M242.4,291c0,2.7-2.2,4.8-4.8,4.8c-2.7,0-4.8-2.2-4.8-4.8c0-2.7,2.2-4.8,4.8-4.8
						S242.4,288.3,242.4,291L242.4,291z"/>
				</g>
				<g id="g3440">
					<path id="path3230" class="st1" d="M261.3,325.9v-32.3"/>
					<path id="path3252" class="st1" d="M266.1,290.5c0,2.7-2.2,4.8-4.8,4.8c-2.7,0-4.8-2.2-4.8-4.8c0-2.7,2.2-4.8,4.8-4.8
						S266.1,287.9,266.1,290.5L266.1,290.5z"/>
				</g>
				<g id="g3452">
					<path id="path3212" class="st1" d="M80.5,280.4h35.4"/>
					<path id="path3254" class="st1" d="M124.2,280.4c0,2.7-2.2,4.8-4.8,4.8c-2.7,0-4.8-2.2-4.8-4.8c0-2.7,2.2-4.8,4.8-4.8
						S124.2,277.8,124.2,280.4L124.2,280.4z"/>
				</g>
				<g id="g3456">
					<path id="path3224" class="st1" d="M105.8,152.6v53"/>
					<path id="path3256" class="st1" d="M110.6,208.2c0,2.7-2.2,4.8-4.8,4.8s-4.8-2.2-4.8-4.8c0-2.7,2.2-4.8,4.8-4.8
						S110.6,205.5,110.6,208.2L110.6,208.2z"/>
				</g>
				<g id="g3460">
					<path id="path3222" class="st1" d="M127.5,152.6v33.8"/>
					<path id="path3258" class="st1" d="M132.3,189.5c0,2.7-2.2,4.8-4.8,4.8c-2.7,0-4.8-2.2-4.8-4.8c0-2.7,2.2-4.8,4.8-4.8
						S132.3,186.8,132.3,189.5L132.3,189.5z"/>
				</g>
				<path id="path3262" class="st1" d="M277.2,181.9c0,2.7-2.2,4.8-4.8,4.8s-4.8-2.2-4.8-4.8c0-2.7,2.2-4.8,4.8-4.8
					S277.2,179.3,277.2,181.9L277.2,181.9z"/>
				<path id="path3264" class="st1" d="M292.9,265.3c0,2.7-2.2,4.8-4.8,4.8c-2.7,0-4.8-2.2-4.8-4.8c0-2.7,2.2-4.8,4.8-4.8
					S292.9,262.6,292.9,265.3L292.9,265.3z"/>
				<path id="path3266" class="st1" d="M248.5,251.1c0,2.7-2.2,4.8-4.8,4.8s-4.8-2.2-4.8-4.8c0-2.7,2.2-4.8,4.8-4.8
					S248.5,248.5,248.5,251.1L248.5,251.1z"/>
				<path id="path3268" class="st1" d="M218.7,226.9c0,2.7-2.2,4.8-4.8,4.8s-4.8-2.2-4.8-4.8c0-2.7,2.2-4.8,4.8-4.8
					C216.5,222.1,218.7,224.2,218.7,226.9L218.7,226.9z"/>
				<path id="path3270" class="st1" d="M218.7,195.1c0,2.7-2.2,4.8-4.8,4.8s-4.8-2.2-4.8-4.8c0-2.7,2.2-4.8,4.8-4.8
					C216.5,190.2,218.7,192.4,218.7,195.1L218.7,195.1z"/>
				<g id="g3464">
					<path id="path3220" class="st1" d="M148.2,150.6v22.7"/>
					<path id="path3260" class="st1" d="M153,175.9c0,2.7-2.2,4.8-4.8,4.8s-4.8-2.2-4.8-4.8c0-2.7,2.2-4.8,4.8-4.8
						C150.8,171,153,173.2,153,175.9L153,175.9z"/>
					<path id="path3272" class="st3" d="M153.4,175.7h30.9"/>
				</g>
				<path id="path3274" class="st1" d="M293.9,386.4V415"/>
				<path id="path3276" class="st1" d="M265.7,386.4v45.4"/>
				<path id="path3278" class="st1" d="M265.7,121.4V87.1h52.1V37.9h-52.1V0"/>
				<path id="path3280" class="st1" d="M345,350.7h-12.1"/>
				<path id="path3282" class="st1" d="M347.9,375h-26.4"/>
				<path id="path3284" class="st1" d="M361.4,362.9h70.2"/>
				<path id="path3286" class="st1" d="M57.9,362.9H0"/>
				<path id="path3288" class="st1" d="M58.2,308.6V107.1h208.9"/>
				<path id="path3290" class="st1" d="M237.9,105.7V62.1h114.3"/>
				<path id="path3292" class="st1" d="M317.9,86.4V120"/>
				<path id="path3294" class="st1" d="M334.2,351.1c0,2.7-2.2,4.8-4.8,4.8c-2.7,0-4.8-2.2-4.8-4.8c0-2.7,2.2-4.8,4.8-4.8
					S334.2,348.5,334.2,351.1L334.2,351.1z"/>
				<path id="path3296" class="st1" d="M319.9,374.7c0,2.7-2.2,4.8-4.8,4.8c-2.7,0-4.8-2.2-4.8-4.8c0-2.7,2.2-4.8,4.8-4.8
					S319.9,372,319.9,374.7L319.9,374.7z"/>
				<path id="path3298" class="st1" d="M298.8,417.6c0,2.7-2.2,4.8-4.8,4.8c-2.7,0-4.8-2.2-4.8-4.8c0-2.7,2.2-4.8,4.8-4.8
					S298.8,414.9,298.8,417.6L298.8,417.6z"/>
				<path id="path3300" class="st1" d="M322.8,122.6c0,2.7-2.2,4.8-4.8,4.8s-4.8-2.2-4.8-4.8s2.2-4.8,4.8-4.8
					S322.8,119.9,322.8,122.6L322.8,122.6z"/>
				<path id="path3302" class="st1" d="M361.3,62.6c0,2.7-2.2,4.8-4.8,4.8s-4.8-2.2-4.8-4.8c0-2.7,2.2-4.8,4.8-4.8
					S361.3,59.9,361.3,62.6L361.3,62.6z"/>
				<path id="path3306" class="st1" d="M261.4,325.7v23.6H240v35"/>
				<path id="path3310" class="st1" d="M385.7,362.1v-37.9h35.7v12.9h10.2"/>
				<path id="path3314" class="st1" d="M316.4,37.9h44.4V0"/>
				<path id="path3316" class="st1" d="M346.7,40.7V0"/>
				<path id="path3318" class="st1" d="M58,106.4V70.7l-12.8-7L45,30h13.3V0"/>
				<path id="path3320" class="st1" d="M77.5,106.4V62.9L60.4,52.7l0.4-9.1h11.6V0"/>
				<path id="path3322" class="st1" d="M75.4,73.6l61.8-27.9h58.6L264,12.1"/>
				<path id="path3324" class="st1" d="M75.8,87.1l61.3-27.9h58.6l68.2-33.9"/>
				<path id="path3326" class="st1" d="M138.6,47.9V22.1"/>
				<path id="path3328" class="st1" d="M145.7,60v44.3"/>
				<path id="path3330" class="st1" d="M171.4,61.4v20"/>
				<path id="path3332" class="st1" d="M143.2,17.4c0,2.7-2.2,4.8-4.8,4.8c-2.7,0-4.8-2.2-4.8-4.8c0-2.7,2.2-4.8,4.8-4.8
					C141.1,12.5,143.2,14.7,143.2,17.4L143.2,17.4z"/>
				<path id="path3334" class="st1" d="M176.8,84.5c0,2.7-2.1,4.8-4.8,4.8s-4.8-2.1-4.8-4.8c0-2.7,2.1-4.8,4.8-4.8l0,0
					C174.6,79.7,176.8,81.9,176.8,84.5z"/>
				<path id="path3336" class="st1" d="M385.7,324.3v-80.7"/>
				<path id="path3338" class="st1" d="M407.1,324.3V151.4H380l-61.4-65.2"/>
				<path id="path3340" class="st1" d="M390.4,240.9c0,2.7-2.2,4.8-4.8,4.8s-4.8-2.2-4.8-4.8c0-2.7,2.2-4.8,4.8-4.8
					S390.4,238.3,390.4,240.9L390.4,240.9z"/>
				<path id="path3342" class="st1" d="M405,362.9v39.3h26.6"/>
				<g id="g3416">
					<path id="path3344" class="st1" d="M0,402.1h30"/>
				</g>
				<g id="g3420">
					<path id="path3308" class="st1" d="M95,407.1v-27.9"/>
					<path id="path3350" class="st1" d="M100.4,376.6c0,2.7-2.2,4.8-4.8,4.8c-2.7,0-4.8-2.2-4.8-4.8c0-2.7,2.2-4.8,4.8-4.8
						S100.4,374,100.4,376.6L100.4,376.6z"/>
				</g>
				<path id="path3352" class="st1" d="M195,45V0"/>
				<path id="path3354" class="st1" d="M195.1,431.8l-0.2-45.4"/>
				<g id="g3428">
					<path id="path3356" class="st1" d="M197.6,411.6h32.9"/>
					<path id="path3362" class="st1" d="M239.4,411.8c0,2.7-2.2,4.8-4.8,4.8c-2.7,0-4.8-2.2-4.8-4.8c0-2.7,2.2-4.8,4.8-4.8
						S239.4,409.2,239.4,411.8L239.4,411.8z"/>
				</g>
				<path id="path3364" class="st1" d="M361.4,62.9h27.1v29.3h43"/>
				<path id="path3366" class="st1" d="M56.4,92.1H0"/>
				<path id="path3378" class="st1" d="M431.6,30h-17.3"/>
				<path id="path3380" class="st1" d="M44.3,47.5H30"/>
				<path id="path3382" class="st1" d="M42.9,62.9H0"/>
				<path id="path3384" class="st1" d="M387.9,62.9h43.8"/>
				<path id="path3386" class="st1" d="M406.4,119.3v32.1h25.2"/>
				<path id="path3388" class="st1" d="M56.4,151.4H0"/>
				<path id="path3390" class="st1" d="M25,154.3v37.9h17.1v21.4h13.6"/>
				<path id="path3396" class="st1" d="M414.5,29.5c0,2.7-2.2,4.8-4.8,4.8s-4.8-2.2-4.8-4.8c0-2.7,2.2-4.8,4.8-4.8
					S414.5,26.8,414.5,29.5L414.5,29.5z"/>
				<path id="path3312" class="st1" d="M0,337.1h20.7V365"/>
				<g id="g3406">
					<path id="path3392" class="st1" d="M20.6,338.6v-27.1"/>
					<path id="path3400" class="st1" d="M25.4,308.1c0,2.7-2.2,4.8-4.8,4.8c-2.7,0-4.8-2.2-4.8-4.8c0-2.7,2.2-4.8,4.8-4.8
						S25.4,305.4,25.4,308.1L25.4,308.1z"/>
				</g>
				<path id="path3402" class="st1" d="M31.6,47.5c0,2.7-2.2,4.8-4.8,4.8S22,50.2,22,47.5s2.2-4.8,4.8-4.8l0,0
					C29.5,42.7,31.6,44.9,31.6,47.5z"/>
				<g id="g3424">
					<path id="path3394" class="st1" d="M164.3,388.7v12.9"/>
					<path id="path3404" class="st1" d="M168.9,408.1c0,2.7-2.2,4.8-4.8,4.8c-2.7,0-4.8-2.2-4.8-4.8c0-2.7,2.2-4.8,4.8-4.8
						C166.8,403.3,168.9,405.4,168.9,408.1L168.9,408.1z"/>
				</g>
				<path id="path7338" class="st1" d="M418.3,91.6v15.7h13.3"/>
			</g>
		</g>
	</g>
</g>
</svg>
