<svg xmlns="http://www.w3.org/2000/svg" viewBox="0 0 38.61 47.12"><title>shield</title><g id="Layer_2" data-name="Layer 2"><g id="Layer_1-2" data-name="Layer 1"><path d="M19.44,0V3a43.86,43.86,0,0,1,7.72.68,14.71,14.71,0,0,0,8.32,9c-.69,12.53-1.86,23.38-15.93,31.1C6.2,37.38,2.43,22.61,3.08,12.84c4.19-1.37,6.34-3.72,8.5-9.14A43.17,43.17,0,0,1,19.44,3V0m0,0A41.72,41.72,0,0,0,9.35,1.12C6.82,8.07,4.93,9.44.3,10.49-1.28,22.07,3.14,40.17,19.66,47.12c17.79-9.05,18.21-22.94,18.94-36.73C34,9.86,30.08,5.12,29.66,1.12A46.41,46.41,0,0,0,19.44,0Z"/><path d="M19.28,5.37l.14,36a30.93,30.93,0,0,1-14-27.42c5-.92,7.69-4.85,7.83-8A25.12,25.12,0,0,1,19.28,5.37Z"/></g></g></svg>