<svg xmlns="http://www.w3.org/2000/svg" viewBox="0 0 37.52 40.66"><title>skull</title><g id="Layer_2" data-name="Layer 2"><g id="Layer_1-2" data-name="Layer 1"><path d="M18.26,3H19c5.59.21,9.76,1.86,12.4,4.88a13.82,13.82,0,0,1,3.09,10c-.49,4.91-3.54,8.67-6.09,9.34l-2.24.59v2.32c0,1.53,0,4.05.08,6.3a23.21,23.21,0,0,1-7.73,1.24,20.43,20.43,0,0,1-6.92-1.08v-7.3l0-2.24-2.16-.63A9.82,9.82,0,0,1,3,17.53C2.8,14.42,4.35,10.6,7,7.79A15,15,0,0,1,18.26,3m0-3C6,0-.48,10.59,0,17.75A12.8,12.8,0,0,0,8.56,29.28v9.2a20.59,20.59,0,0,0,9.92,2.18,23.62,23.62,0,0,0,10.81-2.34c-.17-2.84-.17-7.36-.17-8.19,3.85-1,7.71-5.78,8.32-11.94C38,12.68,35.64.65,19.09,0l-.82,0Z"/><path d="M15.59,18.14c0,3-1.9,5.37-4.25,5.37s-4.25-2.4-4.25-5.37,1-4.67,4.46-3.27C13.76,15.75,15.59,15.17,15.59,18.14Z"/><path d="M21.5,18.12c0,3,1.86,5.37,4.14,5.37s4.14-2.4,4.14-5.37-.93-4.67-4.35-3.27C23.29,15.74,21.5,15.16,21.5,18.12Z"/><polygon points="18.51 21.93 15.75 28.03 20.85 27.86 18.51 21.93"/><polygon points="12.97 38.3 14.56 32.85 15.47 38.45 17.59 38.64 18.77 32.71 20.18 38.59 22.39 38.74 22.9 32.5 24.75 38.01 25.04 38.89 13.41 39.33 12.97 38.3"/></g></g></svg>